<?xml version="1.0" standalone="no"?>
<!DOCTYPE svg PUBLIC "-//W3C//DTD SVG 20010904//EN"
 "http://www.w3.org/TR/2001/REC-SVG-20010904/DTD/svg10.dtd">
<svg version="1.0" xmlns="http://www.w3.org/2000/svg"
 width="1280.000000pt" height="992.000000pt" viewBox="0 0 1280.000000 992.000000"
 preserveAspectRatio="xMidYMid meet">
<metadata>
Created by potrace 1.15, written by Peter Selinger 2001-2017
</metadata>
<g transform="translate(0.000000,992.000000) scale(0.100000,-0.100000)"
fill="#000000" stroke="none">
<path d="M11517 9663 c-4 -3 -7 -14 -7 -23 0 -24 -81 -52 -275 -95 -88 -19
-185 -42 -215 -51 -67 -19 -95 -23 -330 -50 -62 -7 -137 -31 -161 -51 -8 -7
-32 -13 -52 -13 -20 0 -39 -4 -42 -10 -3 -5 -14 -10 -24 -10 -10 0 -32 -7 -47
-15 -16 -8 -38 -15 -49 -15 -11 0 -56 -27 -100 -60 -73 -54 -88 -60 -170 -77
-86 -17 -92 -20 -150 -74 -58 -54 -90 -71 -165 -83 -19 -3 -66 -26 -103 -51
-38 -25 -147 -84 -243 -132 -96 -49 -194 -104 -218 -123 -24 -19 -88 -69 -141
-110 -241 -186 -284 -222 -290 -240 -5 -15 -15 -20 -40 -20 -24 0 -34 -5 -38
-19 -3 -12 -34 -34 -78 -57 -41 -20 -76 -40 -79 -44 -3 -4 -15 -12 -26 -18
-46 -24 -372 -267 -443 -330 -226 -200 -275 -244 -367 -335 -56 -54 -124 -114
-150 -132 -48 -32 -102 -90 -174 -185 -19 -25 -120 -130 -225 -232 -104 -103
-218 -224 -251 -270 -54 -73 -63 -90 -69 -143 -6 -48 -13 -67 -40 -95 -18 -19
-56 -74 -85 -122 -29 -49 -55 -88 -57 -88 -2 0 -11 16 -19 36 -14 33 -14 44 1
109 l16 72 -36 74 c-29 62 -33 75 -20 82 8 4 15 14 15 21 0 8 14 45 31 82 17
38 35 78 39 89 5 11 50 105 99 208 50 103 91 191 91 195 0 4 13 32 29 62 16
30 36 81 45 112 9 31 30 85 46 120 17 35 30 71 30 81 0 10 11 39 25 65 14 26
25 54 25 62 0 9 4 20 9 26 11 11 98 280 107 329 1 6 9 32 18 58 9 26 16 57 16
68 0 10 11 36 24 57 14 20 28 51 32 67 11 45 101 226 127 255 43 47 60 113 45
174 -8 33 -35 44 -53 21 -51 -67 -70 -103 -109 -206 -23 -63 -54 -139 -68
-169 -44 -97 -58 -134 -74 -190 -8 -30 -24 -84 -34 -120 -26 -93 -135 -410
-175 -510 -19 -47 -37 -98 -41 -115 -3 -16 -12 -39 -18 -50 -15 -23 -89 -192
-140 -315 -19 -47 -55 -125 -80 -175 -25 -49 -46 -96 -46 -103 0 -7 -4 -20
-10 -30 -5 -9 -21 -43 -35 -76 -20 -47 -28 -57 -42 -51 -10 4 -24 9 -30 12 -7
3 -16 -2 -19 -11 -5 -12 -20 -16 -68 -16 -57 0 -62 2 -73 28 -16 35 -61 185
-73 239 -5 23 -18 59 -29 80 -10 21 -19 40 -19 43 0 19 -60 196 -82 245 -16
33 -36 85 -45 115 -19 61 -162 362 -177 371 -5 3 -11 12 -12 20 -6 27 -17 55
-61 144 -25 50 -45 95 -45 100 0 6 -11 26 -24 45 -13 19 -27 51 -31 70 -4 19
-32 89 -63 155 -30 66 -58 129 -63 140 -4 11 -16 38 -25 60 -9 22 -18 49 -20
60 -13 70 -50 158 -81 190 -42 43 -58 44 -78 5 -12 -22 -13 -39 -6 -70 9 -39
18 -55 90 -155 16 -22 35 -58 42 -80 7 -22 26 -65 41 -96 15 -31 28 -65 28
-76 0 -11 18 -43 40 -71 24 -30 38 -56 34 -66 -3 -8 5 -30 18 -48 14 -18 33
-51 43 -73 10 -22 31 -67 46 -99 16 -33 29 -67 29 -75 0 -9 16 -34 35 -55 19
-22 35 -45 35 -53 0 -7 23 -57 50 -112 28 -55 50 -107 50 -116 0 -8 7 -18 15
-21 8 -4 15 -12 15 -19 0 -7 13 -46 30 -86 16 -41 33 -90 36 -109 7 -41 42
-128 59 -150 7 -8 16 -33 20 -55 4 -22 13 -51 21 -65 18 -34 37 -107 38 -150
1 -22 7 -37 17 -42 11 -4 19 -25 23 -65 14 -109 7 -164 -34 -293 -21 -69 -42
-137 -45 -152 -11 -56 -38 -34 -139 115 -54 78 -128 185 -166 237 -59 81 -69
101 -70 137 0 23 -6 46 -12 50 -17 11 -112 114 -223 243 -104 120 -257 276
-267 273 -4 -2 -12 6 -18 17 -14 27 -312 290 -328 290 -9 0 -12 10 -10 28 2
22 -1 28 -20 30 -13 2 -73 37 -132 78 -77 53 -117 87 -137 119 -31 49 -53 58
-131 55 -26 -2 -55 -2 -64 -1 -27 2 -41 40 -39 102 l2 56 -83 33 c-81 32 -134
62 -343 195 -89 56 -209 131 -310 190 -18 12 -60 46 -92 76 -39 37 -77 63
-115 77 -31 11 -147 76 -258 142 -237 142 -397 234 -495 283 -117 58 -346 143
-480 177 -27 7 -62 22 -77 32 -15 10 -43 25 -63 34 -51 21 -193 46 -237 42
-21 -2 -38 0 -38 4 0 5 -9 8 -20 8 -13 0 -20 7 -20 19 0 15 -9 20 -48 24 -26
3 -94 12 -152 21 -72 10 -153 14 -260 11 -85 -2 -180 1 -210 6 -30 5 -98 14
-150 20 -211 23 -279 30 -375 39 l-100 10 -149 -52 c-110 -39 -159 -61 -183
-85 l-34 -31 3 -274 c4 -313 4 -310 108 -518 48 -96 168 -408 209 -540 6 -19
17 -98 26 -176 22 -200 30 -221 104 -274 16 -11 27 -44 47 -135 14 -66 32
-149 40 -184 18 -80 93 -227 149 -289 24 -26 46 -62 50 -82 4 -19 45 -151 92
-293 80 -245 86 -258 116 -274 35 -17 162 -119 188 -149 9 -11 51 -104 94
-209 43 -104 85 -198 93 -207 8 -10 27 -18 41 -18 37 0 152 -122 195 -209 19
-37 42 -73 51 -81 25 -21 49 -74 85 -189 27 -85 43 -117 91 -181 71 -94 131
-150 162 -150 38 0 137 -66 222 -149 l80 -77 159 -33 c171 -35 206 -47 206
-68 0 -8 -21 -65 -46 -126 -101 -247 -98 -238 -99 -387 0 -74 8 -205 19 -290
16 -135 17 -165 6 -235 -13 -80 -13 -80 -83 -154 l-70 -74 6 -81 c3 -45 9 -96
13 -113 6 -33 7 -33 63 -33 95 0 89 15 120 -270 6 -52 19 -131 28 -175 l16
-80 198 -200 c109 -110 202 -213 208 -228 6 -16 11 -91 11 -167 0 -147 1 -150
53 -150 11 0 34 -4 51 -9 17 -6 69 -20 116 -31 198 -50 252 -72 307 -126 61
-58 59 -46 41 -262 -10 -120 -15 -145 -30 -153 -11 -6 -18 -21 -18 -37 0 -15
-27 -75 -60 -134 -34 -58 -69 -135 -80 -170 -55 -185 -108 -356 -175 -559 -41
-125 -75 -234 -75 -244 0 -14 6 -16 43 -10 65 11 106 32 117 59 5 15 50 52
115 96 67 45 110 81 117 98 7 15 20 36 29 47 35 41 101 182 110 234 5 32 17
62 28 72 11 11 23 36 26 56 3 21 17 75 31 120 26 84 59 137 94 148 11 4 20 13
20 21 0 8 6 14 13 14 8 0 20 11 27 25 7 14 17 25 21 25 13 0 39 57 39 85 0 14
5 25 10 25 6 0 10 5 10 11 0 12 105 138 131 157 10 7 53 18 96 24 73 10 84 9
173 -17 144 -42 162 -42 286 -1 131 44 275 73 409 81 178 11 357 34 373 47 8
7 33 38 56 68 22 30 60 76 85 103 l44 47 -2 80 c-2 70 0 81 19 97 12 10 32 41
46 70 14 28 51 83 84 122 33 40 62 82 65 94 12 55 75 452 75 473 0 15 -6 24
-15 24 -13 0 -15 28 -16 188 0 103 -5 293 -11 422 -5 129 -11 267 -13 305 -2
67 -6 347 -5 391 0 15 10 24 39 32 21 7 41 12 45 12 42 0 126 -444 126 -665 1
-151 30 -428 50 -465 43 -81 67 -95 177 -105 92 -9 144 17 182 90 15 28 46 83
70 124 36 59 47 89 57 155 7 44 24 147 38 229 24 138 25 156 16 290 -23 316
-31 415 -40 467 -5 30 -12 86 -16 124 -6 55 -11 70 -26 74 -10 2 -18 5 -18 7
0 7 52 205 61 233 12 36 29 41 45 14 30 -48 74 -240 78 -342 3 -89 47 -433 61
-480 2 -8 6 -232 9 -497 5 -519 7 -493 -45 -493 -14 0 -19 -7 -19 -30 0 -24
-6 -33 -27 -41 -16 -6 -30 -9 -33 -7 -13 8 -17 -99 -9 -217 19 -273 37 -356
94 -422 18 -22 37 -52 40 -66 4 -15 38 -64 76 -109 104 -124 116 -144 160
-269 23 -63 48 -122 57 -131 11 -13 30 -18 71 -18 31 0 153 -7 271 -16 202
-15 225 -19 387 -65 219 -62 230 -62 277 -4 36 43 40 45 91 45 64 0 234 -34
281 -56 95 -45 150 -123 321 -454 160 -310 214 -404 348 -610 l67 -103 125 6
c68 3 127 8 131 12 9 9 -31 76 -92 155 -43 56 -59 90 -112 245 -34 99 -74 212
-89 250 -47 121 -65 186 -86 307 -15 90 -28 134 -55 185 -40 77 -40 87 4 183
17 36 37 85 45 110 27 79 57 139 75 149 9 5 91 27 182 50 91 23 184 49 208 58
l42 16 0 201 0 201 112 95 c61 52 121 100 132 106 12 6 51 15 89 19 77 8 70
-8 67 155 -1 58 -8 138 -15 177 -14 73 -13 87 17 165 13 35 92 85 187 119 105
37 141 52 141 59 0 3 -31 37 -70 74 -49 48 -76 67 -92 66 -41 -4 -46 -1 -64
42 -9 24 -18 48 -19 53 -16 69 -60 215 -66 215 -13 0 -4 300 11 377 12 60 12
89 1 180 -18 149 -36 211 -70 230 -15 9 -39 41 -55 74 -42 87 -87 123 -181
144 -42 9 -73 20 -69 24 28 24 108 31 347 31 l255 0 59 44 c32 24 84 66 115
93 31 26 100 84 152 128 57 48 96 88 96 99 0 10 23 50 52 90 29 39 63 100 77
136 19 47 72 126 189 282 159 211 163 219 198 324 41 125 137 322 161 331 9 4
24 13 32 20 58 51 107 84 130 89 50 11 51 12 51 64 0 27 4 50 9 50 18 0 21 45
4 58 -14 10 -15 16 -5 32 6 10 8 22 3 25 -11 6 -7 26 21 113 21 67 38 73 38
14 1 -30 3 -34 11 -19 5 9 7 22 4 28 -4 5 -2 16 5 24 8 10 8 18 -2 34 -11 18
-10 26 6 56 10 19 26 37 36 40 10 3 26 35 42 83 14 42 42 115 62 162 109 249
214 539 222 610 13 114 40 212 78 285 9 17 16 38 16 48 0 9 9 25 20 34 13 12
20 30 20 54 0 19 9 64 21 100 11 35 22 77 22 94 1 19 7 30 17 30 10 0 16 12
18 37 2 20 10 42 18 48 8 7 14 27 14 46 0 18 5 36 10 39 6 3 10 19 10 35 0 16
7 35 15 44 8 8 15 28 15 44 0 17 4 32 10 34 13 4 28 129 35 293 3 72 8 150 11
175 5 44 2 48 -68 134 -60 73 -85 96 -143 127 -42 22 -75 48 -83 63 l-13 26
-318 0 c-175 0 -321 -3 -324 -7z"/>
</g>
</svg>
