<?xml version="1.0" standalone="no"?>
<!DOCTYPE svg PUBLIC "-//W3C//DTD SVG 20010904//EN"
 "http://www.w3.org/TR/2001/REC-SVG-20010904/DTD/svg10.dtd">
<svg version="1.0" xmlns="http://www.w3.org/2000/svg"
 width="1280.000000pt" height="1068.000000pt" viewBox="0 0 1280.000000 1068.000000"
 preserveAspectRatio="xMidYMid meet">
<metadata>
Created by potrace 1.15, written by Peter Selinger 2001-2017
</metadata>
<g transform="translate(0.000000,1068.000000) scale(0.100000,-0.100000)"
fill="#000000" stroke="none">
<path d="M11730 10669 c-269 -23 -519 -65 -815 -138 -110 -27 -221 -52 -248
-55 -26 -3 -68 -17 -94 -31 -26 -13 -72 -30 -102 -36 -31 -7 -63 -18 -71 -24
-8 -7 -75 -41 -149 -75 -131 -61 -197 -89 -491 -211 -239 -99 -367 -166 -403
-212 -35 -43 -154 -127 -372 -261 -173 -107 -397 -276 -590 -447 -203 -180
-666 -659 -814 -843 -40 -50 -130 -149 -200 -221 -70 -71 -173 -186 -227 -255
-136 -170 -294 -379 -294 -388 0 -5 -18 -38 -39 -73 -22 -36 -47 -94 -56 -130
-16 -61 -35 -99 -35 -69 0 28 -91 200 -105 200 -25 0 -17 23 24 68 l39 42 -27
0 c-25 1 -26 1 -6 16 11 8 19 21 17 29 -1 7 6 16 17 20 30 9 71 63 71 93 0 34
-34 110 -63 141 -12 12 -48 36 -79 52 l-58 29 66 66 c36 36 118 109 182 163
118 99 289 267 359 353 21 25 84 100 139 166 136 160 186 237 309 470 158 301
212 453 190 539 l-7 28 -18 -35 c-10 -19 -26 -76 -35 -125 -29 -147 -194 -495
-335 -705 -128 -190 -384 -474 -570 -633 -52 -45 -133 -117 -180 -160 -47 -44
-104 -92 -127 -109 l-43 -29 0 28 -1 28 -14 -26 c-11 -21 -20 -25 -40 -22 -29
6 -32 15 -10 33 22 19 18 27 -12 27 -16 0 -51 3 -79 7 -41 7 -54 5 -67 -9 -22
-22 -22 -39 1 -30 43 19 55 11 78 -47 12 -32 18 -58 13 -58 -5 0 -9 -10 -9
-22 0 -13 -5 -30 -10 -38 -7 -11 -9 -3 -4 25 3 23 1 60 -5 83 -11 41 -13 42
-52 40 -40 -1 -44 2 -241 198 -372 370 -742 778 -870 959 -101 142 -181 316
-208 450 -39 198 -47 218 -70 175 -21 -38 45 -280 113 -415 57 -114 187 -294
336 -465 133 -153 536 -582 700 -745 89 -88 161 -163 161 -167 0 -4 -15 -14
-34 -22 -44 -18 -91 -82 -106 -145 -13 -56 3 -111 39 -131 12 -6 21 -17 21
-25 0 -8 9 -20 21 -28 16 -12 19 -19 11 -34 -14 -26 -21 -123 -9 -123 6 0 7
-26 3 -67 -12 -114 -13 -115 -66 -17 -81 152 -95 174 -107 174 -6 0 -15 -4
-18 -10 -9 -15 -25 -12 -25 4 0 8 -8 17 -17 22 -14 6 -9 9 19 13 l37 6 -90
105 c-119 138 -222 242 -230 232 -4 -4 -10 -17 -14 -29 -5 -20 -3 -23 22 -23
22 0 25 -2 13 -10 -8 -5 -30 -10 -47 -10 -28 0 -33 4 -33 23 0 12 7 33 16 46
14 19 14 25 3 32 -11 7 -11 9 -1 9 8 0 12 4 10 9 -1 5 -79 93 -173 195 -146
159 -172 183 -182 169 -11 -14 -14 -14 -30 3 -17 17 -17 17 5 12 26 -7 27 -5
6 28 -14 20 -22 24 -45 19 -33 -7 -38 2 -12 20 15 11 8 22 -68 103 -59 64 -91
91 -107 92 -24 0 -101 48 -102 63 0 4 21 -6 46 -23 85 -59 61 -10 -37 77 -30
26 -112 104 -184 173 -210 202 -303 280 -336 280 -23 0 -29 4 -29 23 -1 31
-187 197 -303 269 -51 31 -132 83 -182 114 -49 32 -160 99 -245 150 -85 51
-198 119 -250 152 -150 95 -230 130 -630 280 -386 144 -450 166 -459 155 -3
-3 0 -8 7 -10 24 -9 11 -21 -28 -25 -45 -4 -49 1 -20 27 27 25 25 35 -8 35
-16 0 -89 18 -163 40 -74 23 -161 43 -194 47 -33 3 -64 9 -70 13 -18 14 -365
78 -515 96 -287 35 -767 21 -985 -27 -115 -26 -231 -103 -270 -180 -9 -17 -19
-57 -22 -88 -3 -31 -12 -75 -20 -99 -20 -53 -13 -140 21 -274 33 -128 92 -241
237 -450 11 -15 19 -31 19 -35 0 -4 14 -28 30 -53 16 -25 30 -53 30 -63 0 -10
13 -31 28 -47 16 -15 60 -93 98 -171 38 -79 77 -152 86 -161 9 -9 20 -34 23
-55 10 -57 13 -63 37 -72 16 -6 29 -29 49 -87 15 -43 24 -80 19 -82 -5 -2 -2
-15 5 -30 7 -15 37 -88 65 -162 29 -74 59 -148 68 -165 8 -16 23 -56 33 -88
17 -56 17 -58 0 -43 -27 24 -37 19 -14 -7 18 -19 21 -40 26 -147 3 -69 12
-146 20 -172 15 -46 73 -141 155 -249 39 -51 44 -66 57 -151 18 -120 66 -253
119 -327 22 -33 55 -78 72 -102 29 -40 42 -80 99 -284 23 -81 48 -127 108
-199 28 -34 71 -92 95 -131 54 -85 110 -145 134 -145 17 0 17 -2 2 -25 -15
-23 -15 -27 10 -69 27 -46 70 -79 119 -91 18 -5 26 -12 23 -21 -4 -11 1 -13
17 -9 15 4 36 -3 61 -20 36 -25 46 -26 152 -26 62 0 129 3 149 7 31 6 35 4 28
-12 -4 -11 -15 -30 -25 -44 -18 -25 -18 -27 11 -113 17 -49 39 -103 51 -121
11 -18 20 -50 20 -69 0 -91 -96 -244 -147 -234 -20 4 -27 -3 -49 -50 -14 -29
-51 -88 -83 -131 -197 -266 -225 -337 -185 -473 18 -60 57 -119 80 -119 21 0
17 26 -12 76 -34 58 -22 57 16 -2 20 -32 43 -53 71 -66 23 -10 39 -21 36 -24
-3 -3 -14 -1 -25 5 -29 16 -35 14 -29 -9 6 -23 3 -24 -25 -9 -39 21 -30 -1 25
-61 37 -40 59 -73 64 -98 13 -59 7 -201 -11 -267 -18 -68 -21 -163 -5 -219 6
-21 30 -59 52 -83 41 -43 44 -45 139 -58 53 -7 104 -17 113 -23 11 -6 29 -3
55 11 48 23 87 17 132 -21 68 -58 86 -165 47 -293 -18 -60 -20 -88 -17 -237
l3 -169 39 -47 c41 -50 60 -61 143 -81 43 -11 56 -11 78 1 67 35 173 2 253
-78 54 -53 118 -181 137 -273 20 -94 19 -118 -6 -168 -16 -31 -24 -71 -30
-152 -4 -60 -12 -132 -18 -160 -18 -81 -72 -235 -82 -235 -5 0 -9 -5 -9 -11 0
-20 -67 -145 -133 -244 -87 -134 -317 -595 -355 -716 -44 -137 -82 -309 -82
-371 0 -51 17 -145 47 -256 12 -45 16 -52 29 -42 12 10 14 8 14 -13 0 -34 72
-71 180 -91 103 -20 150 -20 186 -1 16 8 36 15 44 15 28 0 115 58 154 100 44
49 78 118 101 205 17 66 48 318 66 545 6 80 17 156 24 170 8 17 11 52 8 105
-4 64 -1 92 16 142 12 34 21 78 21 97 0 20 9 59 21 88 11 29 25 80 30 113 6
33 21 83 34 112 26 59 100 142 154 175 19 12 52 39 72 59 61 61 120 59 261
-12 44 -22 103 -44 129 -48 52 -8 149 2 158 17 3 5 17 13 30 17 14 4 51 34 84
67 50 51 61 57 74 46 11 -9 17 -10 20 -2 3 8 23 6 67 -7 79 -21 100 -32 156
-82 64 -55 99 -72 122 -58 13 8 18 8 18 0 0 -18 115 -4 183 21 68 26 97 58
150 167 29 61 44 111 58 194 20 119 25 131 82 193 l36 39 -21 29 -20 29 33 -3
c26 -2 34 -7 32 -22 -1 -17 5 -18 70 -14 81 5 143 30 153 60 3 11 14 28 24 38
32 32 50 119 60 285 7 123 7 161 -3 167 -7 3 -20 13 -31 21 -17 13 -17 14 13
26 17 8 31 17 31 21 0 11 -28 20 -43 14 -10 -4 -12 3 -9 25 3 23 -3 39 -22 62
-14 17 -26 35 -26 40 0 5 -12 9 -27 9 l-28 1 28 23 c27 21 27 23 12 52 -8 16
-15 35 -15 42 0 7 -14 21 -31 31 -18 11 -26 21 -20 26 15 9 71 -48 71 -72 0
-22 18 -43 37 -43 7 0 13 7 13 15 0 8 5 15 10 15 16 0 12 -22 -10 -55 -24 -36
-25 -55 -5 -55 9 0 12 -6 9 -15 -5 -12 2 -15 30 -15 34 0 36 2 26 21 -19 34 0
664 25 829 3 25 11 106 16 180 5 74 10 144 11 155 1 11 -1 37 -5 58 -6 27 -5
37 5 37 10 0 12 17 10 65 -2 35 2 86 8 112 6 27 16 84 20 128 11 101 48 305
66 368 15 55 10 75 -22 87 -15 6 -27 23 -35 50 l-12 41 -29 -31 c-40 -45 -37
-71 12 -92 42 -17 55 -50 24 -62 -23 -9 -24 -8 -24 23 0 22 -6 30 -24 35 -13
3 -31 9 -40 12 -12 5 -16 0 -16 -20 0 -21 5 -26 25 -26 27 0 34 -17 11 -26
-26 -10 -56 15 -56 46 0 17 -4 30 -10 30 -5 0 -10 23 -10 50 0 43 3 50 19 50
11 0 27 -10 35 -22 16 -22 16 -22 31 -3 8 11 15 23 15 26 0 3 11 11 25 17 25
11 25 13 10 47 -8 20 -24 49 -35 65 -21 29 -29 117 -10 105 6 -3 10 -17 10
-30 0 -31 32 -50 59 -36 19 10 19 12 -2 56 -13 26 -29 45 -39 45 -20 0 -32 16
-19 24 11 7 61 -14 61 -26 0 -23 33 -2 76 47 l47 56 -20 22 c-33 36 -34 43 -7
68 l26 24 -7 -49 c-7 -43 -6 -48 8 -43 27 10 28 -9 2 -47 -23 -33 -24 -39 -10
-52 22 -23 18 -30 -5 -9 -40 36 -60 2 -35 -57 4 -11 3 -18 -4 -18 -6 0 -11 6
-11 14 0 20 -16 29 -41 21 -20 -7 -20 -8 7 -36 22 -23 24 -29 11 -29 -21 0
-22 -14 -1 -34 20 -20 43 -20 50 -1 4 8 11 15 18 15 15 0 78 218 83 290 3 30
11 60 18 66 19 14 35 59 35 96 0 36 30 138 41 138 4 0 20 45 35 100 17 58 34
100 42 100 6 0 12 -9 12 -20 0 -11 11 -52 25 -91 l24 -70 -10 -372 c-5 -205
-14 -403 -19 -442 -5 -38 -9 -111 -9 -162 -1 -83 1 -93 19 -103 11 -6 26 -8
33 -4 6 4 9 4 5 -1 -4 -4 -18 -13 -30 -19 -21 -11 -23 -18 -19 -71 2 -33 9
-78 17 -100 9 -28 10 -43 2 -52 -8 -10 -7 -18 5 -31 10 -11 14 -27 10 -40 -3
-13 -1 -22 6 -22 6 0 11 -15 11 -33 0 -26 10 -45 44 -81 46 -51 96 -141 96
-174 0 -12 9 -22 23 -26 45 -12 48 -9 32 30 -17 42 -19 58 -6 49 5 -3 12 -19
16 -35 5 -25 42 -61 48 -48 1 2 20 30 43 63 23 33 49 75 58 92 29 57 97 260
106 320 6 32 10 195 10 363 1 273 -1 317 -21 415 -28 146 -38 224 -38 318 -1
58 -4 78 -13 74 -8 -2 -13 -23 -14 -53 0 -52 -10 -84 -25 -84 -12 0 -11 24 2
37 9 9 15 59 19 158 1 10 -9 27 -22 37 l-23 18 23 0 c18 0 22 6 22 30 0 17 5
30 11 30 8 0 10 -14 6 -42 l-5 -43 29 35 c16 19 32 52 36 72 5 33 9 38 34 38
34 0 39 -14 44 -114 3 -79 32 -187 45 -167 11 20 40 -70 40 -126 0 -28 11 -84
24 -124 13 -41 36 -114 51 -164 140 -461 181 -583 229 -675 32 -62 39 -87 42
-145 1 -38 0 -59 -3 -45 -3 14 -10 31 -16 39 -6 7 -11 30 -10 50 l2 36 -8 -33
c-10 -37 -7 -89 13 -257 8 -66 17 -228 21 -360 3 -132 10 -271 15 -310 5 -38
14 -121 21 -182 9 -79 16 -113 25 -113 10 0 14 -33 18 -127 10 -282 25 -490
36 -528 7 -22 13 -72 14 -112 1 -63 3 -73 20 -75 13 -2 24 -17 33 -43 11 -33
25 -47 81 -81 37 -23 97 -51 134 -63 90 -30 109 -47 151 -136 33 -68 36 -83
35 -158 0 -82 12 -137 32 -137 5 0 10 5 10 10 0 6 4 10 9 10 6 0 7 -15 4 -34
-5 -31 -1 -39 42 -81 26 -25 67 -57 92 -71 40 -24 51 -26 131 -22 95 4 129 19
204 86 36 32 178 92 218 92 28 0 100 -23 100 -32 0 -8 100 -77 148 -102 19
-10 56 -17 85 -17 52 0 173 24 212 42 13 6 33 6 55 -1 19 -5 49 -10 66 -10 65
0 254 -153 334 -270 20 -30 49 -79 64 -107 36 -72 121 -377 137 -490 12 -87
14 -93 36 -93 l23 0 -20 -33 c-18 -29 -20 -50 -20 -234 0 -124 4 -204 10 -208
7 -4 7 -12 0 -25 -14 -26 -13 -57 3 -63 9 -4 9 -6 0 -6 -9 -1 -7 -16 6 -54 53
-154 110 -206 289 -268 54 -19 55 -19 68 0 11 15 20 18 48 11 19 -4 39 -3 44
2 5 5 20 10 34 12 14 1 39 12 55 24 17 12 41 22 53 22 13 0 20 5 17 13 -2 6 9
27 25 45 15 18 44 64 63 102 33 65 34 74 36 182 4 252 -47 377 -354 863 -109
172 -142 231 -208 365 -101 208 -129 279 -166 425 -38 154 -39 163 -26 380 7
118 14 160 30 197 26 57 71 118 87 118 7 0 27 15 45 33 59 62 113 82 226 83
129 2 154 14 191 91 23 49 29 78 35 178 4 66 11 145 15 176 5 43 3 63 -11 90
-10 18 -19 55 -21 81 -1 26 -5 51 -8 57 -4 5 -1 13 5 16 5 4 8 13 5 21 -3 8 5
21 19 30 13 9 27 23 30 32 3 10 23 27 46 40 38 22 40 24 22 39 -17 14 -16 14
7 8 41 -10 213 -13 236 -5 40 16 97 74 120 125 34 71 32 143 -7 253 -17 48
-32 94 -34 102 -2 8 -11 33 -19 55 -50 133 33 273 177 300 26 5 46 18 64 42
l26 34 -24 26 -24 26 28 -7 c26 -6 27 -5 27 38 0 33 -11 64 -46 127 -60 110
-104 167 -199 261 -43 43 -75 78 -71 78 4 0 0 10 -8 22 -10 13 -16 44 -16 74
0 28 -6 66 -14 84 -9 22 -12 55 -8 96 2 34 1 71 -3 81 -6 15 -9 12 -20 -17
-10 -27 -14 -30 -14 -13 -1 12 -5 25 -11 28 -6 4 -4 17 5 36 18 34 14 36 -22
12 l-26 -17 24 37 c23 36 24 36 39 17 54 -71 52 -70 46 -13 -4 41 -14 63 -51
112 -26 34 -50 61 -55 61 -5 0 -12 10 -15 23 -4 12 -25 43 -46 69 -21 26 -39
50 -39 54 0 4 61 4 135 1 108 -5 145 -3 192 10 32 10 75 17 96 17 24 0 37 5
37 13 0 7 11 13 26 13 16 0 37 11 50 26 17 18 30 23 44 19 27 -8 27 19 1 37
-19 13 -18 15 10 33 16 11 29 23 29 28 0 4 7 7 15 7 12 0 13 -4 5 -19 -5 -11
-10 -27 -10 -37 0 -30 29 5 67 80 19 39 50 91 68 116 45 62 74 132 68 164 -4
18 0 28 11 32 9 3 16 12 16 19 0 7 18 35 41 61 22 27 49 65 59 84 18 35 79
230 88 283 2 15 8 27 13 27 5 0 9 9 9 21 0 11 20 47 44 79 37 48 42 61 31 70
-18 15 -50 -5 -69 -43 -16 -35 -26 -25 -19 21 4 25 10 32 27 32 36 0 68 29 62
55 -4 17 -1 24 14 28 17 4 20 0 20 -23 0 -39 15 -46 28 -12 21 54 31 109 41
222 5 73 15 129 27 152 20 43 15 55 -16 38 -20 -11 -21 -10 -10 10 6 12 9 29
6 37 -6 13 -3 13 19 -1 15 -10 34 -14 45 -11 22 7 27 25 8 26 -7 0 -4 4 6 8
18 7 62 108 51 119 -10 11 -35 -9 -35 -28 0 -12 -11 -37 -25 -57 -19 -29 -26
-33 -30 -20 -9 22 42 105 75 122 26 13 27 19 33 107 9 121 42 249 122 464 36
97 65 184 65 194 0 45 63 211 91 241 33 35 37 74 14 119 -15 29 -14 30 5 30
17 0 19 5 14 24 -3 13 -1 27 5 30 6 4 11 2 11 -5 0 -7 3 -9 7 -6 3 4 14 0 24
-9 17 -15 19 -12 38 50 16 52 18 72 9 96 -5 17 -8 33 -5 36 3 3 8 -4 12 -15 8
-27 20 -27 39 1 11 15 12 26 6 32 -6 6 -10 24 -9 41 l1 30 10 -35 10 -35 14
25 c7 14 13 42 12 63 -1 20 3 42 10 49 9 9 12 9 12 0 0 -25 29 -11 62 31 49
59 78 120 78 162 0 32 2 35 24 29 22 -5 26 -1 42 53 10 32 31 79 46 104 15 25
28 51 28 57 0 7 -16 18 -35 26 -33 14 -51 32 -20 20 8 -3 24 5 37 19 20 22 25
23 37 10 12 -13 16 -7 31 48 9 35 25 93 35 129 31 115 7 341 -41 380 -11 10
-16 7 -25 -16 l-11 -29 -9 24 c-5 13 -8 35 -7 49 3 28 -18 39 -49 28 -14 -6
-14 -8 3 -21 18 -14 17 -14 -6 -6 -17 6 -25 16 -25 31 0 26 -27 37 -185 71
-80 18 -135 22 -345 24 -137 2 -297 -1 -355 -6z m717 -1177 c-14 -17 -22 0
-12 26 5 14 7 14 15 2 5 -9 4 -20 -3 -28z m-5795 -3803 c-4 -39 -5 -40 -23
-23 -19 17 -19 18 3 41 12 13 22 23 23 23 0 0 -1 -18 -3 -41z"/>
<path d="M12220 9065 c-7 -8 -9 -23 -5 -32 6 -17 7 -17 21 1 26 36 12 64 -16
31z"/>
<path d="M6660 6096 c0 -16 5 -26 15 -26 8 0 15 6 15 14 0 7 -7 19 -15 26 -13
11 -15 8 -15 -14z"/>
<path d="M5790 5468 c0 -22 12 -41 49 -77 l50 -48 11 51 c7 28 14 59 17 69 3
11 -1 17 -11 17 -11 0 -16 -9 -16 -30 l0 -31 -30 34 c-17 19 -39 37 -50 40
-17 4 -20 0 -20 -25z"/>
<path d="M5810 5354 c0 -45 15 -74 39 -74 37 0 36 45 -2 88 -28 31 -37 28 -37
-14z"/>
<path d="M5662 5298 c3 -7 13 -15 22 -16 12 -3 17 1 14 10 -3 7 -13 15 -22 16
-12 3 -17 -1 -14 -10z"/>
<path d="M7160 4110 c0 -13 5 -20 13 -17 6 2 12 10 12 17 0 7 -6 15 -12 18 -8
2 -13 -5 -13 -18z"/>
<path d="M5662 3181 c4 -13 18 -16 19 -4 0 4 -5 9 -11 12 -7 2 -11 -2 -8 -8z"/>
<path d="M3785 1940 c-13 -6 -1 -7 35 -3 30 3 57 7 59 9 9 8 -75 2 -94 -6z"/>
<path d="M3738 1923 c7 -3 16 -2 19 1 4 3 -2 6 -13 5 -11 0 -14 -3 -6 -6z"/>
</g>
</svg>
