<?xml version="1.0" standalone="no"?>
<!DOCTYPE svg PUBLIC "-//W3C//DTD SVG 20010904//EN"
 "http://www.w3.org/TR/2001/REC-SVG-20010904/DTD/svg10.dtd">
<svg version="1.0" xmlns="http://www.w3.org/2000/svg"
 width="1280.000000pt" height="954.000000pt" viewBox="0 0 1280.000000 954.000000"
 preserveAspectRatio="xMidYMid meet">
<metadata>
Created by potrace 1.15, written by Peter Selinger 2001-2017
</metadata>
<g transform="translate(0.000000,954.000000) scale(0.100000,-0.100000)"
fill="#000000" stroke="none">
<path d="M485 9528 c-182 -17 -197 -25 -309 -147 -113 -123 -156 -229 -172
-423 -9 -117 7 -196 53 -250 20 -25 33 -51 33 -68 0 -16 4 -31 9 -35 6 -3 13
-27 17 -53 4 -26 14 -63 24 -82 9 -19 20 -49 23 -66 3 -16 34 -73 70 -125 35
-52 80 -123 101 -159 20 -36 48 -83 62 -105 14 -22 31 -54 39 -72 8 -17 19
-34 25 -38 5 -3 16 -28 24 -55 20 -67 44 -121 121 -270 7 -14 27 -56 45 -95
18 -38 41 -87 51 -107 10 -21 23 -68 30 -105 10 -60 41 -150 72 -208 29 -55
57 -119 57 -131 0 -4 6 -15 14 -23 7 -9 28 -56 45 -105 17 -49 42 -103 55
-120 13 -17 26 -41 30 -53 4 -12 22 -38 40 -58 19 -20 39 -56 45 -80 6 -23 17
-48 26 -55 8 -7 15 -18 15 -24 0 -14 91 -199 102 -207 9 -6 37 -54 65 -109 9
-19 20 -37 23 -40 8 -6 60 -116 71 -150 23 -74 58 -163 68 -173 6 -6 11 -20
11 -32 0 -12 4 -25 9 -30 5 -6 14 -26 20 -47 15 -47 157 -191 234 -238 32 -19
73 -45 90 -57 67 -45 295 -141 378 -158 46 -9 139 -73 150 -103 13 -33 -26
-215 -64 -302 -26 -61 -86 -261 -109 -365 -27 -120 -32 -324 -9 -365 55 -98
168 -178 284 -200 37 -7 78 -21 91 -31 13 -11 28 -19 33 -19 14 0 47 -40 61
-73 22 -52 11 -206 -20 -262 -20 -36 -48 -166 -48 -222 0 -34 7 -68 20 -93 11
-22 20 -45 20 -53 0 -23 70 -97 114 -119 33 -18 56 -21 121 -20 68 2 91 8 150
36 39 19 90 35 115 37 l45 4 3 -46 c2 -34 -6 -68 -33 -134 -47 -116 -50 -146
-30 -246 13 -65 27 -99 61 -151 49 -75 63 -86 144 -119 78 -32 182 -29 288 6
48 16 89 24 102 20 11 -3 29 -24 40 -45 23 -46 27 -171 9 -279 -12 -67 -75
-211 -144 -326 -20 -33 -56 -101 -81 -151 -24 -51 -51 -97 -59 -104 -8 -7 -15
-17 -15 -22 0 -6 -14 -28 -32 -51 -18 -22 -41 -56 -51 -76 -11 -20 -27 -45
-37 -56 -10 -11 -25 -36 -34 -55 -9 -19 -20 -42 -25 -50 -5 -8 -17 -33 -26
-55 -10 -22 -39 -85 -66 -140 -35 -73 -55 -129 -70 -205 -12 -58 -28 -136 -36
-175 -23 -108 -20 -276 5 -351 25 -73 88 -181 112 -194 10 -5 36 -12 58 -16
32 -5 48 -1 84 20 35 20 53 43 91 110 26 46 47 90 47 98 0 7 8 27 18 43 33 56
82 199 127 375 25 96 52 199 61 227 8 29 20 77 28 106 7 29 20 66 29 83 9 17
23 61 32 99 8 37 22 82 30 99 8 17 19 61 25 99 12 76 35 139 83 230 18 34 51
100 73 147 35 77 97 179 171 284 16 21 48 51 73 67 l45 29 22 -28 c13 -15 23
-31 23 -37 0 -5 6 -22 14 -36 7 -15 21 -49 30 -75 17 -52 61 -124 98 -163 36
-37 122 -71 180 -71 67 0 109 15 187 67 35 24 70 43 78 43 18 0 128 104 152
144 10 17 22 49 25 71 13 74 10 72 84 71 58 -1 76 4 133 34 94 50 145 87 208
152 64 64 121 132 121 143 0 4 9 20 21 36 59 83 131 249 149 344 6 33 16 74
21 90 5 17 11 61 13 98 5 63 16 121 68 352 21 91 41 230 39 275 0 21 19 81 49
155 5 11 16 47 25 80 25 88 30 101 70 195 20 47 45 108 55 135 10 28 34 83 54
122 20 40 36 75 36 79 0 3 9 19 21 35 11 16 32 57 45 91 50 128 39 118 122
118 60 0 74 -3 79 -17 12 -36 48 -109 74 -152 16 -24 31 -56 34 -73 4 -16 22
-57 41 -90 19 -33 34 -65 34 -72 0 -10 30 -87 74 -191 41 -96 105 -289 117
-350 4 -22 14 -58 23 -80 10 -26 15 -74 16 -137 0 -69 5 -112 19 -150 21 -59
56 -230 66 -323 9 -76 56 -262 88 -345 56 -148 253 -420 303 -420 4 0 24 -16
44 -35 19 -19 69 -51 110 -71 67 -32 81 -36 133 -31 65 6 77 -4 77 -64 0 -54
54 -135 122 -179 32 -22 61 -40 63 -40 4 0 80 -49 128 -82 20 -13 51 -20 111
-24 76 -4 87 -2 136 23 40 22 64 44 101 97 26 37 55 89 64 115 64 177 72 186
131 142 22 -15 51 -43 65 -62 78 -102 148 -215 187 -304 24 -55 52 -111 61
-125 35 -52 52 -102 96 -280 16 -65 50 -172 77 -242 16 -42 32 -94 35 -115 3
-21 17 -72 31 -113 14 -41 29 -93 33 -115 4 -22 12 -56 18 -75 5 -19 24 -89
42 -155 17 -66 49 -154 70 -195 21 -41 45 -93 52 -115 50 -139 139 -210 232
-185 31 9 47 22 71 58 51 76 62 103 78 190 20 103 20 177 1 267 -8 38 -15 83
-15 100 0 52 -50 237 -80 295 -16 30 -50 100 -76 155 -26 55 -69 135 -96 177
-26 43 -48 80 -48 83 0 3 -10 16 -22 31 -25 27 -62 86 -77 121 -5 11 -14 24
-19 27 -5 3 -17 26 -27 51 -9 25 -32 69 -51 97 -19 27 -34 56 -34 63 0 8 -6
20 -13 27 -23 23 -95 181 -112 243 -23 88 -20 268 5 323 16 36 23 42 49 42 17
0 59 -11 93 -23 98 -37 186 -42 261 -16 81 29 120 59 164 125 20 30 39 54 43
54 7 0 22 72 34 166 4 31 -4 71 -34 163 -22 68 -41 137 -43 155 -2 30 -1 31
42 34 33 3 59 -4 107 -28 70 -34 161 -54 215 -47 59 8 169 85 169 119 0 10 5
18 10 18 6 0 10 9 10 20 0 11 9 36 21 57 17 30 20 48 16 93 -9 88 -24 156 -43
191 -20 39 -44 150 -43 199 0 59 32 123 69 142 18 9 36 21 39 25 11 15 61 33
91 33 16 0 32 5 35 10 3 6 15 10 27 10 38 0 134 60 169 106 18 24 36 44 40 44
30 0 45 221 23 330 -19 90 -44 193 -55 225 -6 17 -15 44 -20 60 -5 17 -26 81
-48 144 -54 159 -76 252 -67 286 12 48 69 92 149 116 40 11 77 24 82 28 6 4
49 20 97 35 48 15 94 36 104 47 9 10 21 19 27 19 20 0 180 102 240 152 34 29
80 76 102 103 41 51 85 136 85 161 0 8 6 25 14 37 8 12 28 65 46 117 33 101
78 196 116 246 13 17 24 34 24 38 0 3 15 29 34 56 19 28 40 67 47 87 6 21 20
50 30 65 11 14 19 30 19 35 0 4 11 25 25 45 14 20 25 47 25 60 0 13 21 50 45
82 25 33 45 65 45 72 0 6 6 17 14 23 8 7 29 47 46 89 42 103 42 105 85 197 87
185 107 240 121 320 9 53 32 110 89 225 106 210 129 259 166 350 22 52 47 106
57 120 11 14 27 43 38 65 10 22 23 45 29 51 5 7 24 33 40 60 17 26 35 55 40
63 51 79 65 102 84 141 35 70 58 137 85 238 16 64 30 98 44 108 81 57 68 374
-23 554 -28 56 -183 213 -233 236 -15 7 -63 20 -107 27 -111 20 -846 7 -927
-17 -29 -8 -105 -20 -168 -26 -63 -6 -158 -20 -210 -31 -52 -11 -152 -30 -222
-43 -70 -14 -142 -31 -160 -39 -18 -8 -94 -32 -168 -52 -345 -93 -460 -133
-611 -211 -48 -24 -92 -44 -99 -44 -7 0 -40 -13 -74 -29 -33 -16 -88 -41 -121
-56 -33 -15 -72 -36 -87 -46 -14 -11 -32 -19 -38 -19 -7 0 -81 -34 -164 -76
-83 -42 -163 -80 -178 -84 -27 -8 -96 -49 -210 -125 -33 -22 -67 -44 -76 -50
-9 -5 -44 -29 -79 -52 -34 -23 -77 -49 -95 -58 -18 -8 -82 -53 -143 -100 -60
-46 -125 -92 -143 -100 -18 -9 -47 -32 -65 -51 -30 -34 -149 -123 -229 -172
-21 -13 -38 -27 -38 -32 0 -5 -36 -37 -80 -71 -44 -34 -80 -66 -80 -70 0 -5
-21 -23 -46 -39 -25 -15 -76 -57 -114 -92 -37 -35 -89 -79 -115 -98 -54 -40
-122 -106 -169 -164 -17 -22 -43 -53 -59 -70 -15 -17 -37 -45 -50 -62 -81
-114 -136 -174 -348 -385 l-239 -235 -10 31 c-5 17 -29 51 -53 75 -24 25 -46
53 -50 62 -3 10 -25 31 -49 47 -91 64 -83 45 -63 147 21 110 33 155 124 489
16 61 35 130 41 155 38 143 91 285 113 301 26 19 67 113 67 153 0 55 -8 66
-50 66 -50 0 -68 -23 -81 -101 -6 -35 -21 -98 -35 -139 -84 -261 -129 -390
-150 -438 -13 -30 -27 -73 -30 -96 -6 -41 -15 -74 -55 -196 -19 -59 -52 -196
-66 -277 -11 -63 -74 -33 -108 51 -13 31 -41 77 -64 101 -23 25 -41 51 -41 59
0 8 -6 21 -13 28 -7 7 -22 28 -32 46 -11 17 -23 32 -27 32 -4 0 -8 7 -8 15 0
9 -6 18 -13 21 -8 3 -31 40 -52 82 -71 144 -78 157 -97 181 -10 13 -18 29 -18
36 0 15 -48 99 -111 195 -90 138 -128 205 -141 249 -18 62 -75 121 -116 121
-31 0 -32 -2 -32 -42 0 -33 8 -52 40 -94 22 -29 40 -56 40 -58 0 -3 25 -40 55
-83 48 -66 106 -174 170 -313 20 -45 38 -75 57 -97 8 -10 26 -38 39 -63 13
-24 29 -51 36 -60 58 -73 73 -94 73 -101 0 -10 61 -101 88 -132 8 -9 20 -26
26 -36 6 -10 28 -48 49 -83 20 -36 37 -67 37 -70 0 -2 -22 -19 -50 -37 -27
-18 -59 -46 -72 -64 -12 -18 -42 -51 -65 -74 -24 -23 -43 -51 -43 -63 0 -11
-3 -20 -6 -20 -3 0 -93 87 -199 193 -106 105 -214 212 -240 237 -26 25 -66 72
-88 105 -84 124 -265 323 -363 398 -27 20 -67 54 -90 75 -22 20 -60 53 -85 72
-24 19 -62 51 -84 70 -79 71 -223 186 -281 225 -32 22 -81 61 -108 87 -27 26
-77 63 -110 83 -34 20 -104 70 -156 111 -52 41 -113 84 -135 94 -22 11 -69 40
-103 65 -70 51 -75 54 -219 136 -108 62 -360 189 -437 220 -27 11 -61 29 -76
39 -15 11 -49 27 -76 36 -27 9 -60 24 -74 34 -14 9 -43 23 -65 30 -22 7 -56
21 -75 31 -19 11 -38 19 -43 19 -4 0 -38 15 -75 33 -37 18 -96 44 -132 57 -36
13 -70 27 -75 31 -13 10 -140 46 -229 65 -66 15 -220 61 -337 102 -54 19 -226
55 -319 66 -80 10 -263 37 -354 51 -180 29 -743 50 -911 33z"/>
</g>
</svg>
