<?xml version="1.0" standalone="no"?>
<!DOCTYPE svg PUBLIC "-//W3C//DTD SVG 20010904//EN"
 "http://www.w3.org/TR/2001/REC-SVG-20010904/DTD/svg10.dtd">
<svg version="1.0" xmlns="http://www.w3.org/2000/svg"
 width="1280.000000pt" height="857.000000pt" viewBox="0 0 1280.000000 857.000000"
 preserveAspectRatio="xMidYMid meet">
<metadata>
Created by potrace 1.15, written by Peter Selinger 2001-2017
</metadata>
<g transform="translate(0.000000,857.000000) scale(0.100000,-0.100000)"
fill="#000000" stroke="none">
<path d="M5200 8558 c-32 -17 -36 -50 -15 -130 32 -128 133 -289 202 -320 20
-9 48 -32 62 -50 47 -63 295 -319 361 -372 99 -81 470 -424 470 -435 0 -3 -28
-5 -62 -4 -60 2 -61 2 -23 -8 69 -16 69 -16 45 -49 -19 -26 -27 -30 -69 -30
-46 0 -48 -1 -43 -25 2 -14 13 -32 24 -39 20 -14 19 -15 -10 -78 -16 -34 -37
-96 -47 -135 -9 -40 -19 -73 -21 -73 -5 0 -133 106 -309 255 -431 367 -968
674 -1665 955 -328 132 -418 160 -1005 314 -394 102 -439 111 -790 147 -184
18 -251 20 -535 16 -436 -7 -654 -34 -909 -113 -156 -49 -406 -165 -521 -242
-99 -67 -233 -190 -300 -278 l-40 -51 0 -225 0 -226 57 -73 c31 -41 76 -96
101 -124 48 -53 92 -136 92 -172 0 -16 5 -21 15 -17 10 4 21 -8 37 -40 12 -25
27 -46 33 -46 7 0 50 -23 96 -51 46 -29 108 -65 137 -81 28 -16 52 -36 52 -43
0 -26 52 -75 91 -86 28 -9 38 -17 35 -28 -20 -65 -19 -70 10 -81 16 -6 72 -36
125 -66 52 -29 99 -54 103 -54 4 0 5 8 2 18 -2 9 -8 42 -11 72 -5 41 -4 52 4
44 7 -6 16 -52 21 -102 13 -120 21 -136 93 -172 33 -17 65 -30 71 -30 6 0 17
-23 24 -52 17 -72 55 -127 103 -147 25 -10 43 -26 51 -46 6 -16 22 -46 34 -65
12 -19 25 -54 29 -78 9 -57 39 -90 123 -136 97 -53 120 -80 132 -151 10 -62
33 -90 91 -115 24 -10 38 -33 69 -115 5 -13 24 -25 56 -33 27 -7 83 -29 125
-48 42 -19 86 -34 97 -34 13 0 28 -12 39 -30 26 -45 84 -80 145 -89 34 -5 72
-20 108 -43 62 -40 124 -72 158 -83 21 -6 23 -5 13 13 -29 54 -7 50 52 -10 34
-34 88 -78 119 -96 51 -30 70 -35 165 -43 59 -5 134 -13 166 -17 l59 -7 -32
-43 c-87 -120 -129 -248 -137 -412 -3 -66 -11 -133 -20 -157 -22 -61 -12 -121
25 -154 17 -15 33 -40 36 -55 6 -27 42 -54 72 -54 7 0 18 -16 24 -35 10 -30 7
-45 -21 -127 -28 -78 -33 -107 -33 -183 -1 -79 5 -137 19 -211 3 -11 43 -64
89 -118 57 -66 97 -124 122 -177 36 -75 62 -105 51 -56 -3 12 -9 56 -12 97 -6
68 -5 73 9 56 24 -30 29 -100 16 -217 -14 -120 -9 -199 15 -235 8 -13 15 -32
15 -42 0 -12 41 -44 135 -102 74 -47 153 -102 175 -124 35 -34 42 -37 57 -25
15 13 16 11 10 -13 -6 -21 -3 -28 12 -33 11 -3 27 -18 36 -33 35 -54 65 -79
90 -75 20 4 25 0 34 -33 14 -50 14 -100 -1 -238 -6 -62 -8 -124 -5 -138 4 -15
22 -36 40 -47 30 -18 44 -20 115 -14 l82 6 0 -31 c0 -29 6 -34 80 -72 95 -50
150 -105 150 -153 0 -17 14 -70 30 -116 26 -74 28 -90 19 -125 -24 -95 -85
-271 -145 -417 -81 -200 -109 -297 -134 -470 -25 -172 -19 -249 32 -378 l21
-53 44 6 c24 3 56 12 71 20 28 14 104 128 131 193 11 27 23 36 68 50 30 9 65
27 79 40 22 20 24 29 24 116 0 157 20 355 41 411 10 28 43 94 72 146 51 93 72
113 127 124 14 3 45 22 69 42 l43 37 34 -16 c19 -9 34 -12 34 -7 0 6 10 5 25
-2 16 -7 27 -22 31 -44 3 -18 20 -51 36 -74 26 -35 35 -41 61 -38 41 4 65 39
92 135 19 66 26 79 46 81 13 2 44 23 70 46 33 30 76 54 143 79 53 21 100 37
106 37 5 0 10 9 10 20 0 17 7 20 48 20 51 0 142 26 142 41 0 4 6 6 14 3 17 -7
65 51 106 127 28 54 31 66 31 154 0 52 -3 100 -6 105 -3 5 11 40 31 76 l37 66
-22 67 c-12 36 -21 74 -21 84 0 9 20 58 45 108 37 74 53 95 88 116 23 14 57
46 76 72 18 25 51 60 72 76 66 49 71 102 34 370 -8 61 -14 142 -15 181 0 39
-6 89 -14 111 -23 64 -45 189 -56 316 -6 64 -18 134 -27 155 -12 28 -18 91
-24 267 -4 127 -17 318 -28 425 -12 107 -21 202 -21 212 0 10 -7 18 -16 18
-12 0 -13 5 -7 23 11 30 6 250 -8 316 -10 50 -5 130 8 117 19 -19 46 -121 49
-183 3 -73 42 -257 91 -437 20 -73 33 -102 50 -113 13 -9 23 -25 23 -39 0 -28
3 -29 35 -8 24 16 61 15 127 -1 27 -7 27 -6 63 111 21 66 48 151 61 191 13 39
24 81 24 93 0 11 6 49 14 83 8 34 19 82 24 107 8 43 9 44 19 20 41 -98 55
-415 32 -705 -6 -71 -13 -179 -16 -240 -5 -98 -8 -113 -29 -133 -30 -31 -38
-96 -35 -302 1 -91 3 -214 3 -275 1 -60 -2 -197 -7 -302 l-8 -193 32 -11 c35
-12 51 -35 51 -74 0 -25 0 -25 -30 -10 l-29 15 17 -45 c13 -36 33 -58 100
-112 157 -124 204 -182 261 -320 l29 -72 -20 -67 c-17 -59 -18 -74 -8 -133 17
-100 61 -171 154 -255 44 -39 103 -92 132 -119 46 -43 62 -50 149 -72 54 -14
132 -40 174 -59 42 -19 92 -41 111 -49 26 -10 38 -24 49 -53 11 -32 35 -74 83
-147 4 -7 12 -6 22 2 11 9 16 10 16 2 0 -19 16 -12 63 29 l46 41 6 -34 7 -33
62 0 c44 0 86 -9 137 -27 66 -25 79 -34 123 -89 27 -34 62 -93 77 -132 24 -56
44 -83 102 -140 l73 -71 28 -175 c38 -238 70 -301 184 -359 113 -58 187 -21
222 109 15 57 3 233 -16 226 -10 -4 -11 0 -2 18 14 33 -14 116 -107 309 -135
285 -200 461 -215 592 -20 165 -11 278 32 425 19 67 23 70 58 57 30 -11 55 -7
135 22 17 6 50 16 75 23 28 8 49 21 56 35 6 12 23 32 37 44 58 45 70 121 46
296 -12 80 -11 83 14 136 15 29 51 81 82 114 45 50 76 72 167 118 123 64 192
120 219 180 21 44 25 139 9 194 -14 48 -3 81 25 81 31 0 33 5 60 112 21 80 28
95 75 143 57 61 84 116 76 151 -4 14 4 54 19 96 33 94 54 262 42 331 -7 41 -4
83 16 202 25 146 25 151 7 169 -17 17 -17 21 -3 64 21 60 12 178 -22 278 l-26
77 33 34 c18 19 57 51 86 70 28 19 61 47 72 63 20 28 165 95 275 127 55 17
173 75 159 80 -5 2 -43 7 -84 12 l-75 8 95 2 c112 2 106 -2 295 174 67 62 149
135 183 164 l63 52 -27 14 -27 14 44 11 c68 17 102 59 114 140 l11 67 16 -29
16 -30 11 54 c10 44 22 64 77 122 36 38 70 80 76 93 7 16 24 27 53 34 55 14
100 63 109 121 3 23 16 61 28 83 34 70 187 239 226 251 21 7 31 30 47 109 3
16 12 27 21 27 13 0 14 3 4 15 -18 21 49 100 98 116 63 19 122 58 116 74 -5
11 1 15 21 15 21 0 51 23 129 98 55 53 122 112 149 129 26 18 47 37 47 41 0 5
-30 1 -67 -10 -38 -10 -81 -17 -98 -16 l-30 3 30 16 c17 10 62 20 100 24 39 4
80 11 92 16 29 11 59 59 79 126 10 34 29 66 55 93 42 43 45 43 110 24 17 -5
59 68 59 104 0 11 14 43 31 71 21 34 30 58 27 76 -4 20 -1 25 14 25 16 0 18 5
12 38 -4 20 -15 53 -24 72 -21 42 -154 172 -262 257 -87 69 -273 175 -401 227
-140 58 -484 141 -687 166 -143 17 -668 24 -830 11 -456 -38 -777 -106 -1505
-320 -345 -102 -371 -108 -392 -94 -38 25 -175 -3 -244 -50 -19 -12 -70 -35
-114 -51 -44 -15 -106 -44 -138 -63 -33 -20 -84 -43 -115 -52 -55 -16 -57 -19
-62 -55 -5 -37 -8 -40 -115 -98 -309 -169 -686 -405 -840 -527 -102 -80 -260
-244 -285 -296 -12 -25 -23 -45 -24 -45 -1 0 0 19 2 41 3 29 1 40 -7 35 -6 -4
-11 -14 -11 -22 0 -8 -4 -14 -9 -14 -19 0 -45 115 -45 200 -1 84 -12 123 -39
133 -8 3 -17 27 -20 59 -8 63 -24 78 -85 78 l-44 0 53 47 c154 135 350 387
546 703 107 173 139 234 186 360 41 111 50 173 26 178 -11 2 -19 -6 -23 -25
-4 -15 -22 -44 -41 -63 -19 -20 -38 -54 -45 -80 -7 -25 -28 -78 -47 -118 -32
-64 -35 -78 -29 -126 5 -49 4 -55 -28 -92 -18 -21 -63 -85 -100 -142 -37 -56
-98 -135 -135 -176 -38 -40 -92 -108 -122 -152 -29 -43 -94 -121 -145 -173
l-91 -95 -50 32 c-27 18 -62 32 -77 32 -23 0 -30 -8 -47 -46 -11 -25 -27 -48
-36 -51 -9 -4 -40 19 -86 64 -40 38 -129 120 -199 182 -70 62 -146 138 -169
169 -24 31 -68 84 -99 117 -39 41 -61 74 -69 105 -7 25 -36 79 -63 120 -45 66
-50 78 -40 102 9 24 3 38 -63 138 -40 61 -82 138 -94 170 -16 44 -30 64 -61
85 -46 32 -113 42 -150 23z"/>
<path d="M12584 7340 c-17 -7 -44 -54 -44 -77 0 -10 61 30 74 49 27 38 17 47
-30 28z"/>
<path d="M3011 3924 c0 -11 3 -14 6 -6 3 7 2 16 -1 19 -3 4 -6 -2 -5 -13z"/>
</g>
</svg>
