<?xml version="1.0" standalone="no"?>
<!DOCTYPE svg PUBLIC "-//W3C//DTD SVG 20010904//EN"
 "http://www.w3.org/TR/2001/REC-SVG-20010904/DTD/svg10.dtd">
<svg version="1.0" xmlns="http://www.w3.org/2000/svg"
 width="1280.000000pt" height="756.000000pt" viewBox="0 0 1280.000000 756.000000"
 preserveAspectRatio="xMidYMid meet">
<metadata>
Created by potrace 1.15, written by Peter Selinger 2001-2017
</metadata>
<g transform="translate(0.000000,756.000000) scale(0.100000,-0.100000)"
fill="#000000" stroke="none">
<path d="M11380 6963 c-123 -6 -282 -26 -410 -49 -340 -63 -1040 -285 -1840
-584 -293 -110 -410 -160 -685 -298 -432 -215 -679 -353 -970 -540 -157 -101
-472 -351 -627 -498 -26 -24 -50 -44 -55 -44 -13 0 -42 73 -34 86 3 7 59 71
124 145 130 145 123 130 101 236 -5 26 3 51 41 130 49 102 66 163 46 163 -6 0
-11 -8 -11 -19 0 -10 -26 -72 -57 -137 -45 -94 -57 -130 -58 -169 0 -49 -3
-54 -94 -160 -106 -123 -107 -125 -139 -125 -30 0 -38 23 -18 52 46 65 -14
168 -99 168 -19 0 -25 5 -24 23 0 12 4 31 9 42 11 28 -16 55 -55 55 -68 0 -71
38 -11 158 54 107 106 240 135 347 13 44 34 103 47 132 14 29 30 82 36 119 9
60 8 68 -9 86 -48 47 -75 -13 -78 -172 -3 -134 -16 -180 -127 -437 -62 -145
-89 -187 -102 -165 -2 4 -16 52 -31 107 -14 55 -46 162 -71 238 -72 221 -130
497 -136 641 -3 66 -2 70 21 76 53 12 48 118 -7 161 -30 23 -36 24 -58 2 -14
-14 -15 -29 -10 -87 13 -136 77 -492 106 -586 96 -314 160 -539 160 -562 0
-10 -13 -21 -33 -27 -36 -12 -51 -31 -62 -79 -7 -34 -32 -56 -77 -67 -14 -4
-37 -18 -50 -32 -20 -21 -23 -35 -23 -97 0 -68 -2 -74 -35 -114 l-36 -43 -72
86 c-40 47 -83 90 -96 95 -27 10 -81 92 -91 137 -4 18 -14 39 -24 45 -10 7
-33 46 -52 87 -18 41 -62 113 -97 160 -35 47 -82 118 -104 158 -22 40 -44 70
-49 67 -12 -7 84 -189 121 -229 39 -43 137 -209 145 -248 10 -43 41 -102 81
-156 19 -24 34 -49 34 -54 0 -6 36 -48 80 -93 49 -50 80 -90 80 -103 0 -11 -3
-21 -6 -21 -5 0 -78 63 -218 190 -177 160 -401 313 -746 511 -388 221 -1049
528 -1390 644 -321 109 -511 176 -693 244 -104 39 -254 89 -334 112 -80 22
-170 49 -201 60 -88 30 -593 127 -762 146 -306 34 -658 18 -890 -39 -159 -39
-452 -180 -525 -254 -48 -48 -60 -135 -27 -202 10 -20 26 -66 36 -102 46 -172
58 -196 165 -316 25 -28 55 -73 65 -100 29 -75 81 -156 145 -228 46 -49 63
-78 76 -123 22 -77 71 -148 167 -238 60 -57 90 -94 120 -153 60 -115 122 -196
191 -253 69 -56 97 -93 97 -127 0 -58 57 -147 179 -281 96 -104 130 -149 156
-205 32 -69 119 -180 240 -306 29 -30 60 -68 68 -85 8 -16 41 -54 74 -83 32
-29 72 -65 88 -81 17 -15 64 -51 105 -81 41 -29 93 -71 116 -94 41 -42 165
-99 287 -132 87 -24 257 -29 397 -10 145 19 151 20 290 76 104 41 203 92 435
220 114 63 342 170 394 185 l24 7 -21 -28 c-11 -16 -50 -58 -87 -94 -328 -319
-463 -463 -577 -616 -188 -252 -226 -358 -259 -725 -6 -63 -14 -152 -18 -199
-10 -103 -3 -118 77 -157 43 -20 76 -28 135 -31 72 -4 79 -6 98 -33 11 -16 31
-64 44 -106 30 -95 78 -167 125 -186 19 -8 88 -31 152 -51 127 -39 159 -64
173 -128 10 -43 121 -149 198 -189 86 -44 142 -99 158 -157 16 -55 18 -267 5
-567 l-8 -200 40 -38 c68 -66 90 -40 91 111 1 74 40 245 76 334 31 77 107 158
185 197 104 52 168 64 360 64 167 1 178 0 250 -27 179 -66 291 -83 363 -53 54
23 102 86 131 174 32 96 79 149 176 198 174 89 268 182 290 287 39 181 -54
594 -176 786 -62 96 -111 206 -132 292 -69 288 -7 744 114 839 33 26 60 27 69
4 3 -10 10 -81 15 -158 15 -233 64 -367 146 -401 41 -17 187 -19 235 -3 39 13
85 53 104 89 7 14 16 66 20 115 9 134 40 295 56 295 14 0 45 -38 73 -89 60
-111 85 -371 57 -589 -34 -258 -38 -273 -98 -362 -78 -119 -107 -216 -150
-505 -24 -160 -24 -417 0 -496 29 -98 131 -172 313 -229 36 -11 76 -20 88 -20
38 0 47 -16 60 -101 7 -46 17 -93 23 -104 20 -35 97 -104 134 -119 l36 -15 40
43 c52 56 121 89 241 117 53 12 115 30 138 41 55 25 91 23 136 -8 l37 -26 48
24 c31 16 73 27 121 32 l73 6 80 -51 c190 -122 270 -292 273 -579 1 -109 13
-160 35 -160 5 0 25 19 46 41 l37 42 -8 91 c-4 50 -7 102 -7 116 1 27 -21 240
-37 353 -18 122 -14 157 25 222 41 67 44 70 148 127 89 48 141 101 194 198 56
101 100 140 158 140 58 0 114 23 174 73 72 58 98 103 135 232 34 118 59 145
135 145 66 0 111 23 142 72 29 48 23 222 -15 373 -18 70 -31 156 -36 235 -4
69 -14 141 -21 160 -15 43 -91 157 -150 226 -24 28 -87 103 -140 165 -112 133
-430 457 -507 517 -30 23 -51 42 -47 42 8 0 419 -204 625 -310 303 -157 523
-194 755 -128 89 25 301 136 356 186 29 27 81 63 115 80 84 42 199 158 244
244 28 54 42 71 71 82 78 31 181 185 251 374 18 50 32 71 68 98 56 43 93 88
127 156 14 29 37 67 50 84 13 17 30 52 39 78 11 32 29 57 57 79 106 83 208
211 279 349 27 50 46 75 66 83 32 14 131 119 174 185 16 25 34 64 40 88 6 24
25 61 42 82 61 75 132 172 168 232 20 33 61 82 90 108 38 34 67 72 96 130 23
45 42 90 42 100 0 10 14 55 30 100 33 90 38 161 16 215 -37 87 -185 192 -376
266 -244 95 -482 129 -790 112z"/>
</g>
</svg>
