<?xml version="1.0" standalone="no"?>
<!DOCTYPE svg PUBLIC "-//W3C//DTD SVG 20010904//EN"
 "http://www.w3.org/TR/2001/REC-SVG-20010904/DTD/svg10.dtd">
<svg version="1.0" xmlns="http://www.w3.org/2000/svg"
 width="1280.000000pt" height="853.000000pt" viewBox="0 0 1280.000000 853.000000"
 preserveAspectRatio="xMidYMid meet">
<metadata>
Created by potrace 1.15, written by Peter Selinger 2001-2017
</metadata>
<g transform="translate(0.000000,853.000000) scale(0.100000,-0.100000)"
fill="#000000" stroke="none">
<path d="M6703 8222 c-29 -19 -37 -70 -39 -252 -3 -339 -25 -640 -69 -925 -14
-88 -45 -311 -70 -495 -48 -358 -90 -628 -99 -638 -3 -3 -6 2 -6 11 0 8 -9 37
-21 64 l-21 48 -13 -25 c-8 -14 -14 -42 -15 -63 0 -45 -27 -109 -44 -104 -6 2
-12 21 -14 43 -6 95 -38 157 -61 116 -5 -9 -11 -15 -14 -12 -8 10 -143 690
-203 1025 -39 217 -71 682 -60 866 8 121 -11 231 -45 268 -24 25 -32 26 -49 6
-10 -12 -12 -52 -7 -163 6 -157 25 -273 59 -350 16 -37 22 -81 29 -207 13
-245 15 -262 130 -885 33 -178 77 -397 97 -485 37 -156 38 -163 30 -275 -5
-63 -11 -141 -13 -172 -2 -31 -6 -61 -9 -66 -3 -5 -24 -12 -46 -15 -46 -6 -72
-32 -91 -90 -10 -30 -10 -45 -1 -71 7 -18 12 -40 12 -49 0 -17 -66 -97 -79
-97 -4 0 -29 30 -57 67 -27 38 -101 129 -164 203 -63 74 -136 160 -162 191
-56 67 -146 144 -334 287 -150 115 -543 386 -671 465 -43 26 -107 66 -143 89
-36 24 -83 50 -105 59 -22 9 -101 54 -175 99 -473 290 -578 344 -1095 563
-440 187 -632 260 -786 297 -68 16 -146 36 -174 44 -95 28 -171 36 -340 37
-93 0 -177 -2 -185 -4 -8 -3 -82 -27 -165 -52 -159 -50 -305 -123 -349 -176
-32 -38 -92 -278 -77 -307 6 -11 11 -56 12 -99 1 -76 0 -80 -46 -158 -42 -73
-45 -84 -38 -120 24 -123 -14 -292 -82 -358 -18 -18 -38 -50 -45 -72 -7 -22
-16 -45 -21 -50 -4 -6 -15 -30 -23 -55 -16 -45 -16 -45 11 -69 25 -21 32 -23
100 -16 62 6 77 4 93 -10 10 -9 38 -19 62 -22 34 -4 54 -16 93 -52 60 -56 125
-101 147 -101 29 0 74 -47 108 -115 36 -71 38 -88 25 -258 -8 -104 1 -124 73
-161 54 -28 63 -43 106 -192 23 -77 27 -108 26 -210 -1 -65 -1 -129 -1 -142 1
-13 21 -44 45 -70 31 -33 49 -64 61 -105 9 -31 28 -85 42 -120 24 -59 25 -68
18 -182 -10 -169 -8 -193 20 -250 25 -51 54 -73 199 -145 17 -9 50 -40 74 -70
50 -63 257 -276 288 -296 11 -8 53 -18 93 -23 39 -5 88 -18 109 -29 35 -18 50
-19 158 -13 65 4 129 13 142 20 12 6 58 18 102 26 43 8 100 21 125 29 25 9 55
16 66 16 32 0 19 -33 -54 -141 -88 -130 -161 -261 -193 -344 -51 -136 -57
-196 -56 -500 1 -154 4 -302 8 -330 9 -73 53 -205 79 -240 44 -59 146 -240
152 -270 18 -87 144 -255 192 -255 10 0 36 -16 58 -35 22 -18 70 -48 107 -66
73 -35 90 -55 161 -184 44 -81 77 -113 158 -156 48 -24 61 -38 77 -73 10 -24
38 -72 63 -107 49 -71 81 -149 93 -224 4 -28 20 -90 36 -138 15 -48 28 -95 28
-103 0 -8 14 -42 30 -75 44 -87 94 -101 184 -50 28 15 78 38 111 51 33 12 76
31 95 41 87 44 204 40 273 -11 31 -24 75 -22 128 6 39 20 285 23 319 4 16 -9
49 -13 90 -11 55 2 69 -1 84 -18 29 -32 73 -37 101 -11 20 19 31 21 68 16 32
-5 47 -3 56 7 17 22 120 65 208 88 l78 20 92 -22 c91 -22 94 -22 149 -5 31 10
81 34 111 53 44 28 60 46 81 91 26 54 27 64 24 187 -2 72 -4 164 -5 205 0 78
17 214 33 263 10 31 -13 108 -89 289 -34 83 -40 107 -39 167 0 38 -2 74 -6 79
-3 6 -2 22 4 36 7 19 17 26 35 26 14 0 28 7 31 15 10 25 43 17 74 -16 34 -38
52 -34 76 16 9 20 29 42 44 50 25 13 29 12 43 -3 9 -10 16 -34 15 -58 0 -23 3
-50 6 -62 4 -12 2 -32 -5 -44 -17 -31 -59 -196 -59 -232 0 -20 10 -38 35 -61
35 -31 35 -33 36 -116 1 -46 -2 -114 -6 -150 -6 -53 -4 -72 10 -98 40 -78 47
-124 52 -321 3 -121 9 -198 16 -202 6 -3 20 -3 31 2 38 14 123 4 151 -18 39
-31 86 -37 143 -18 38 13 71 15 157 10 l109 -6 102 -58 c56 -32 108 -59 115
-60 32 -5 51 1 72 24 16 17 37 25 72 29 28 2 77 12 110 21 33 9 76 18 95 21
19 2 50 7 68 10 19 4 45 2 62 -5 26 -11 37 -10 79 9 61 26 92 26 156 2 28 -10
65 -21 83 -24 31 -6 34 -5 52 37 14 34 26 46 52 55 52 16 139 15 180 -3 21 -9
50 -16 66 -16 16 0 37 -9 47 -20 10 -11 24 -20 31 -20 18 0 105 -47 130 -71
45 -42 135 -51 165 -16 52 59 123 263 135 385 8 72 47 167 87 211 13 14 39 49
57 76 58 87 104 136 150 162 56 33 105 78 133 123 40 67 80 109 141 151 33 23
82 62 108 86 34 31 56 43 77 43 24 0 37 9 65 46 19 25 38 59 42 77 3 18 16 50
27 72 12 23 24 70 27 112 5 57 12 77 33 103 15 17 27 38 27 46 0 9 11 30 24
47 13 18 36 60 50 94 31 74 34 161 11 293 -8 47 -15 108 -15 135 -1 28 -7 61
-15 75 -21 36 -18 83 6 114 l21 26 -22 73 c-12 39 -28 81 -35 93 -7 12 -24 54
-36 95 -41 137 -235 415 -398 572 -92 89 -128 133 -118 143 5 5 164 -28 297
-61 30 -8 144 -21 254 -30 164 -14 214 -15 292 -5 124 15 217 43 255 74 41 34
172 193 192 232 9 16 35 52 60 80 24 27 49 58 55 69 6 12 22 26 36 33 14 7 38
18 53 24 14 7 37 29 49 48 32 49 40 203 13 265 -51 118 -19 329 55 363 16 7
28 24 35 49 13 46 13 151 1 213 -20 104 25 253 100 328 50 50 59 84 48 182 -4
36 -7 93 -7 126 -1 56 3 68 38 120 22 33 62 76 91 98 28 21 60 50 70 64 21 26
151 85 211 95 101 16 117 50 70 143 -16 33 -34 77 -39 99 -5 22 -28 71 -51
110 -40 67 -41 73 -41 157 0 74 -5 99 -31 165 -17 43 -37 88 -45 100 -10 15
-14 47 -13 95 1 48 -4 88 -16 118 -9 25 -21 70 -27 100 -5 30 -12 65 -14 77
-13 66 -93 112 -291 166 -298 81 -485 76 -869 -24 -150 -39 -397 -129 -489
-179 -38 -21 -158 -75 -265 -120 -225 -95 -400 -181 -654 -322 -198 -109 -673
-390 -801 -473 -44 -28 -106 -67 -137 -86 -243 -146 -507 -342 -703 -520 -290
-263 -417 -399 -606 -649 -24 -31 -29 -33 -51 -23 -31 14 -64 114 -47 144 16
31 -8 98 -52 142 -28 28 -44 37 -56 32 -45 -18 -48 -14 -49 74 -1 45 -6 86
-11 90 -12 7 5 143 40 326 14 72 40 247 57 390 17 143 47 359 66 480 19 121
43 326 54 455 23 262 33 332 59 399 29 72 44 185 45 326 l1 130 -25 3 c-14 1
-30 -1 -37 -6z"/>
</g>
</svg>
