<?xml version="1.0" standalone="no"?>
<!DOCTYPE svg PUBLIC "-//W3C//DTD SVG 20010904//EN"
 "http://www.w3.org/TR/2001/REC-SVG-20010904/DTD/svg10.dtd">
<svg version="1.0" xmlns="http://www.w3.org/2000/svg"
 width="1280.000000pt" height="710.000000pt" viewBox="0 0 1280.000000 710.000000"
 preserveAspectRatio="xMidYMid meet">
<metadata>
Created by potrace 1.15, written by Peter Selinger 2001-2017
</metadata>
<g transform="translate(0.000000,710.000000) scale(0.100000,-0.100000)"
fill="#000000" stroke="none">
<path d="M11335 6944 c-16 -2 -73 -9 -125 -15 -152 -17 -356 -63 -635 -143
-301 -86 -336 -97 -916 -301 -582 -205 -834 -308 -1193 -487 -700 -350 -1116
-612 -1476 -931 -72 -64 -87 -73 -97 -61 -6 9 -17 14 -25 13 -7 -2 -23 1 -36
5 -22 7 -22 8 17 54 21 26 63 71 92 101 30 29 54 56 54 60 0 3 8 17 17 31 15
23 16 30 3 65 -21 59 -19 71 30 179 24 54 47 113 51 132 10 54 -12 41 -32 -18
-20 -62 -70 -166 -91 -190 -9 -10 -13 -28 -11 -43 3 -14 1 -25 -3 -25 -12 0
-11 -37 1 -61 6 -11 7 -19 1 -19 -5 0 -47 -45 -93 -101 -110 -133 -147 -173
-154 -166 -3 3 -1 15 6 26 6 12 7 27 3 34 -4 6 -6 35 -4 63 2 46 -1 55 -30 88
-21 24 -47 41 -75 48 -38 10 -41 14 -32 31 13 26 1 87 -17 87 -13 0 -19 11
-17 31 1 3 -14 6 -33 6 -28 0 -35 -5 -43 -31 -7 -22 -10 -25 -11 -11 0 11 20
65 45 120 60 132 129 310 159 412 13 45 31 93 40 106 8 13 22 60 32 106 20 99
10 134 -35 129 -45 -5 -61 -84 -53 -261 3 -60 -188 -549 -214 -548 -5 0 -32
80 -60 178 -29 98 -69 234 -89 303 -41 139 -100 426 -111 538 l-6 73 25 -7
c34 -8 50 24 42 84 -10 71 -54 120 -94 105 -29 -12 -31 -41 -12 -189 34 -256
68 -415 137 -646 36 -123 81 -272 99 -333 18 -60 33 -126 33 -145 -1 -31 -2
-32 -8 -10 -7 24 -7 24 -19 5 -9 -16 -11 -17 -12 -4 0 9 -7 22 -15 29 -19 16
-50 -11 -32 -29 8 -8 7 -11 -7 -11 -13 0 -16 -5 -11 -19 4 -14 0 -21 -14 -26
-16 -5 -18 -11 -11 -29 7 -20 4 -23 -33 -33 -61 -17 -99 -61 -105 -121 -2 -31
0 -52 7 -56 18 -11 13 -34 -9 -41 -11 -4 -18 -10 -15 -15 3 -4 -2 -10 -10 -14
-8 -3 -15 -12 -15 -21 0 -36 -30 -13 -132 103 -25 28 -53 52 -61 52 -18 0
-100 127 -121 188 -27 75 -84 174 -144 249 -32 39 -77 108 -100 152 -42 78
-62 99 -62 65 0 -25 96 -188 144 -244 42 -49 81 -120 169 -310 25 -52 54 -105
66 -117 11 -12 21 -26 21 -30 0 -4 32 -40 72 -80 54 -54 69 -76 61 -84 -9 -9
-48 19 -155 108 -224 187 -336 271 -480 363 -299 190 -609 357 -1013 545 -361
168 -426 195 -810 330 -99 35 -319 115 -490 178 -432 159 -578 204 -875 272
-423 97 -597 119 -935 119 -256 1 -346 -8 -495 -45 -247 -61 -533 -199 -586
-282 -12 -19 -30 -56 -40 -83 l-17 -50 40 -90 c23 -49 44 -111 47 -138 8 -66
52 -141 142 -244 22 -26 53 -78 68 -116 32 -81 90 -171 158 -243 26 -28 48
-61 48 -73 0 -37 42 -123 88 -180 68 -86 131 -149 163 -165 16 -9 29 -24 29
-34 0 -61 159 -280 258 -356 52 -39 67 -59 57 -76 -8 -12 65 -146 114 -212 21
-29 71 -85 111 -126 40 -40 83 -94 95 -120 12 -25 35 -73 50 -106 22 -45 54
-85 129 -158 56 -54 113 -105 129 -113 15 -8 27 -21 27 -29 0 -7 21 -45 48
-85 55 -82 174 -185 269 -232 40 -19 76 -47 100 -76 42 -51 88 -74 243 -122
135 -41 256 -49 428 -26 68 9 145 16 170 16 44 0 101 15 129 33 9 5 13 3 13
-8 0 -9 3 -15 8 -13 4 2 24 12 44 21 20 9 53 28 73 41 20 14 62 30 93 36 31 7
77 24 102 40 25 15 57 30 72 34 14 3 40 17 56 31 40 34 131 75 165 75 l28 0
-20 -28 c-11 -16 -77 -87 -146 -158 -226 -231 -404 -464 -479 -625 -24 -52
-47 -105 -51 -119 -4 -14 -14 -34 -21 -45 -8 -11 -14 -45 -14 -80 0 -59 -20
-276 -41 -447 -7 -58 -7 -93 0 -105 5 -11 34 -32 63 -48 49 -27 61 -30 153
-30 l100 0 27 -55 c17 -34 27 -72 28 -100 0 -47 18 -85 64 -133 18 -20 32 -27
44 -22 39 16 54 16 119 -3 37 -12 88 -24 113 -27 113 -16 120 -24 120 -135 0
-73 20 -117 67 -146 15 -10 38 -27 51 -38 13 -12 60 -39 105 -61 74 -36 84
-45 106 -87 31 -64 44 -223 31 -390 -13 -173 -13 -431 1 -462 14 -31 83 -80
102 -73 9 3 17 51 26 163 15 183 32 246 97 351 85 137 204 209 404 243 98 17
145 20 218 15 105 -7 138 -17 254 -76 89 -44 129 -50 179 -25 18 9 43 16 56
16 34 0 116 44 144 77 29 35 66 108 74 147 9 44 64 89 175 147 196 100 300
232 300 375 -1 38 -7 87 -15 109 -8 22 -17 90 -21 150 -3 61 -12 146 -21 190
-19 101 -85 242 -148 314 -62 72 -89 129 -110 231 -16 79 -23 299 -10 320 3 5
6 44 6 89 2 144 34 146 166 9 128 -133 135 -139 172 -155 59 -25 159 -20 227
11 68 31 97 56 126 107 26 46 61 67 82 50 18 -15 71 -149 81 -204 4 -20 2 -74
-5 -120 -6 -45 -16 -111 -21 -147 -7 -46 -23 -89 -54 -145 -125 -224 -152
-298 -174 -475 -6 -47 -16 -116 -22 -155 -6 -38 -11 -142 -12 -230 -2 -147 0
-165 22 -219 50 -125 146 -191 330 -226 155 -29 166 -40 155 -150 -7 -77 2
-101 59 -149 98 -85 153 -100 210 -58 38 26 210 101 282 121 72 21 203 36 335
37 106 2 120 0 172 -25 32 -15 84 -53 116 -85 69 -68 201 -242 221 -291 9 -23
15 -81 16 -165 3 -179 19 -211 76 -162 58 49 61 61 49 213 -6 77 -18 202 -27
279 -29 241 -21 337 35 420 21 31 49 51 124 90 121 62 191 127 208 193 26 103
51 124 188 158 108 27 134 41 190 107 41 47 50 70 72 179 19 97 40 118 159
158 117 39 156 69 167 126 6 35 -9 181 -27 254 -4 19 -15 109 -24 200 -31 332
-53 369 -532 875 -83 88 -162 173 -175 190 -22 28 -11 27 24 -3 10 -8 39 -16
65 -19 37 -3 56 -11 83 -37 49 -45 68 -56 208 -115 246 -103 346 -137 462
-155 59 -10 232 12 321 40 98 30 256 97 314 132 22 14 61 44 87 68 26 24 72
55 103 69 37 16 83 50 131 96 70 69 164 192 164 217 0 7 17 23 38 36 74 47
168 160 221 269 28 56 53 118 56 138 5 27 24 53 76 105 76 75 182 238 219 336
15 40 27 58 43 62 66 16 237 226 273 334 18 52 29 69 53 82 83 42 209 206 218
283 4 29 16 53 38 77 50 55 188 231 215 275 13 22 55 73 92 112 70 74 99 127
123 223 8 30 25 86 39 123 33 87 33 111 -4 183 -38 74 -114 136 -252 205 -134
67 -238 104 -387 136 -117 25 -146 27 -391 29 -146 1 -278 0 -295 -2z"/>
</g>
</svg>
