<?xml version="1.0" standalone="no"?>
<!DOCTYPE svg PUBLIC "-//W3C//DTD SVG 20010904//EN"
 "http://www.w3.org/TR/2001/REC-SVG-20010904/DTD/svg10.dtd">
<svg version="1.0" xmlns="http://www.w3.org/2000/svg"
 width="1280.000000pt" height="884.000000pt" viewBox="0 0 1280.000000 884.000000"
 preserveAspectRatio="xMidYMid meet">
<metadata>
Created by potrace 1.15, written by Peter Selinger 2001-2017
</metadata>
<g transform="translate(0.000000,884.000000) scale(0.100000,-0.100000)"
fill="#000000" stroke="none">
<path d="M12085 8829 c-784 -70 -1578 -436 -2505 -1155 -523 -406 -1120 -954
-1722 -1582 -567 -591 -739 -788 -904 -1032 -85 -126 -169 -266 -179 -298 -7
-23 -8 -22 -37 17 -16 23 -34 41 -39 41 -5 0 -9 5 -9 11 0 7 10 9 25 5 81 -20
73 -24 63 39 -15 97 -54 148 -123 163 l-40 8 -7 59 c-7 59 -6 61 40 130 26 38
97 119 158 180 60 61 193 210 294 331 102 120 221 257 265 304 45 47 114 132
155 190 123 174 172 218 291 263 142 54 250 122 264 168 10 31 -21 59 -65 59
-48 0 -100 -29 -218 -120 -139 -108 -183 -155 -279 -303 -49 -76 -122 -170
-170 -222 -47 -49 -148 -169 -226 -265 -77 -96 -206 -240 -287 -320 -81 -80
-166 -175 -190 -213 l-44 -67 -25 70 c-22 62 -41 90 -41 59 0 -6 -15 -43 -34
-84 -30 -64 -37 -73 -56 -68 -24 6 -62 59 -81 116 -7 20 -16 37 -20 37 -9 0
-29 -59 -43 -129 l-11 -53 -35 53 c-61 95 -179 227 -283 318 -169 147 -176
155 -490 587 -60 83 -148 222 -198 313 -105 192 -129 224 -210 285 -72 54
-110 60 -135 21 -26 -41 -7 -67 81 -111 91 -45 111 -68 263 -299 57 -88 121
-180 142 -205 20 -25 103 -133 185 -240 196 -259 224 -291 308 -354 80 -60
172 -153 234 -236 42 -57 143 -218 143 -230 0 -3 -15 -11 -34 -18 -32 -12 -68
-44 -116 -102 l-20 -25 -20 23 c-18 22 -20 23 -52 6 -18 -9 -42 -24 -53 -34
-20 -18 -23 -14 -212 228 -1158 1492 -2334 2543 -3498 3124 -459 230 -929 392
-1415 490 -155 31 -376 31 -493 -1 -208 -55 -322 -177 -362 -385 -22 -115 -20
-190 7 -226 18 -25 20 -33 10 -55 -17 -38 -15 -72 10 -142 21 -58 21 -65 8
-110 -18 -59 -15 -139 6 -170 8 -13 27 -32 42 -41 23 -14 27 -23 24 -56 -3
-33 2 -44 31 -75 43 -44 70 -99 86 -172 17 -79 58 -139 192 -277 118 -123 145
-164 173 -264 10 -34 38 -86 70 -131 36 -50 55 -87 58 -115 3 -23 15 -54 27
-71 12 -16 21 -35 21 -43 0 -28 49 -115 93 -167 l47 -55 0 -112 c0 -132 17
-197 78 -303 22 -38 65 -138 96 -221 45 -122 53 -156 46 -176 -38 -98 55 -321
164 -395 40 -27 42 -31 21 -49 -10 -8 -15 -30 -15 -61 0 -52 26 -117 94 -234
38 -64 62 -168 54 -226 -5 -28 1 -44 38 -95 68 -97 185 -199 278 -244 142 -69
177 -72 616 -65 212 4 393 9 403 11 9 3 17 2 16 -3 0 -4 -57 -35 -126 -68
-260 -124 -507 -288 -730 -486 -106 -94 -109 -97 -178 -230 -84 -160 -179
-321 -233 -393 -39 -51 -40 -54 -31 -102 11 -53 7 -108 -17 -255 l-17 -96 29
-69 c24 -60 28 -80 26 -157 -3 -104 20 -217 53 -267 50 -73 58 -107 64 -273 7
-173 8 -177 68 -177 25 0 36 -6 47 -28 8 -15 35 -47 60 -71 36 -35 44 -50 40
-68 -13 -49 92 -192 130 -177 11 4 26 -16 53 -71 47 -96 194 -282 229 -291 14
-4 36 -2 49 4 19 9 27 6 51 -19 15 -16 49 -37 76 -47 36 -13 53 -27 67 -53 10
-18 42 -51 72 -72 46 -33 60 -38 95 -34 40 4 41 4 64 -47 31 -67 110 -143 196
-187 56 -30 77 -35 112 -31 63 6 226 -34 259 -64 34 -31 61 -38 126 -31 29 4
75 9 102 12 35 4 57 1 75 -9 59 -35 72 -38 121 -22 80 26 94 23 185 -46 55
-41 87 -47 139 -24 26 11 33 11 55 -4 67 -47 252 -72 378 -50 90 15 207 71
279 135 40 35 59 45 87 45 95 0 192 66 274 186 122 180 650 1235 903 1802 85
193 76 191 100 26 11 -73 10 -84 -6 -115 -14 -26 -19 -58 -20 -134 -1 -55 -9
-140 -18 -189 -21 -109 -22 -260 -2 -344 17 -72 54 -148 101 -211 19 -24 34
-48 34 -54 0 -6 12 -31 27 -56 15 -25 33 -76 39 -112 6 -36 19 -78 29 -92 24
-37 82 -53 142 -40 44 11 47 10 70 -18 14 -16 29 -29 34 -29 5 0 0 9 -11 20
-11 11 -20 28 -20 38 0 20 69 68 122 84 25 7 38 18 42 34 4 13 19 33 36 45
l29 22 -31 45 c-17 25 -60 73 -95 107 -34 34 -63 65 -63 69 0 4 27 51 61 104
117 188 169 331 149 417 -6 27 -4 60 6 108 8 37 14 105 14 150 0 49 4 77 9 71
16 -17 118 -208 156 -295 51 -115 81 -203 116 -344 107 -433 361 -952 579
-1188 214 -230 413 -303 857 -315 168 -4 184 -3 210 15 45 32 62 35 173 38
121 2 154 14 196 72 16 21 31 42 35 46 4 5 20 2 37 -7 44 -23 115 -20 165 6
31 15 69 23 142 28 111 7 157 25 224 85 52 47 80 55 180 54 133 -2 187 33 250
166 17 34 42 65 71 87 25 19 56 53 69 77 19 34 28 42 44 37 36 -9 107 31 186
108 69 67 81 74 125 79 57 6 94 30 119 78 15 28 17 48 13 108 l-6 74 78 72
c88 82 128 148 143 234 9 51 15 61 39 71 35 15 91 73 125 130 83 142 100 221
70 319 l-17 58 26 26 c39 39 64 106 87 233 11 63 27 136 34 162 33 107 30 181
-15 397 -16 79 -62 165 -122 230 -36 39 -57 72 -62 95 -9 50 -40 97 -126 191
-235 257 -312 310 -795 548 -187 92 -356 174 -375 183 l-35 16 70 7 c38 4 236
5 440 3 390 -6 510 0 640 32 274 68 422 229 455 496 6 49 24 113 45 165 41 99
45 149 13 181 -14 14 -18 23 -10 26 30 10 42 34 36 70 -5 35 -3 38 33 57 75
40 106 125 107 297 1 86 3 99 23 117 23 21 43 78 43 119 0 13 10 37 21 54 12
16 24 49 27 73 3 33 10 45 28 54 14 6 27 19 31 28 3 10 17 30 31 45 23 25 27
40 33 135 7 99 6 109 -12 125 -23 20 -24 42 -4 99 19 53 51 89 80 89 57 0 107
120 75 180 -8 16 -5 19 18 25 41 9 149 134 157 183 4 20 11 47 17 59 8 17 8
33 1 58 -9 28 -8 35 3 35 7 0 25 18 39 40 14 22 32 40 39 40 18 0 56 47 56 70
0 10 7 23 16 31 10 8 14 23 12 41 -4 22 -1 28 14 28 66 0 168 115 168 191 0
20 5 50 11 68 8 22 8 40 1 61 -11 29 -10 30 30 40 38 11 40 13 34 42 -5 26 1
40 33 82 85 112 115 211 88 296 -11 37 -11 52 -1 80 16 45 17 103 3 117 -9 9
-5 25 16 65 32 61 30 111 -5 143 -14 13 -20 31 -20 60 0 66 -38 224 -64 269
-33 56 -61 80 -131 113 -57 27 -68 28 -215 29 -85 1 -200 -2 -255 -7z"/>
</g>
</svg>
